<?xml version="1.0" standalone="no"?>
<!DOCTYPE svg PUBLIC "-//W3C//DTD SVG 20010904//EN"
 "http://www.w3.org/TR/2001/REC-SVG-20010904/DTD/svg10.dtd">
<svg version="1.0" xmlns="http://www.w3.org/2000/svg"
 width="200.000000pt" height="200.000000pt" viewBox="0 0 200.000000 200.000000"
 preserveAspectRatio="xMidYMid meet">
<metadata>
Created by potrace 1.16, written by Peter Selinger 2001-2019
</metadata>
<g transform="translate(0.000000,200.000000) scale(0.100000,-0.100000)"
fill="white" stroke="none">
<path d="M894 1979 c-18 -20 -19 -49 -22 -720 l-2 -699 -170 0 -170 0 -16 -25
c-9 -14 -14 -34 -10 -47 3 -13 110 -128 239 -255 174 -175 239 -233 257 -233
18 0 83 58 257 232 129 128 236 243 239 256 4 13 -1 33 -10 47 l-16 25 -170 0
-170 0 -2 699 c-3 821 10 741 -128 741 -76 0 -89 -3 -106 -21z"/>
</g>
</svg>
